<?xml version="1.0" encoding="UTF-8"?>
<svg id="Capa_1" xmlns="http://www.w3.org/2000/svg" version="1.1" viewBox="0 0 25.6 30.2">
  <!-- Generator: Adobe Illustrator 30.6.0, SVG Export Plug-In . SVG Version: 2.1.4 Build 109)  -->
  <defs>
    <style>
      .st0 {
        fill-rule: evenodd;
      }
    </style>
  </defs>
  <path d="M19.4,25.6c0-.9.8-1.7,1.7-1.7h1.4c.1-.6.2-1.3.2-2.1,0-1.9-.5-3.5-1.4-4.6-.8-1-1.8-1.7-3.2-2.1,1.2-.5,2.2-1.3,2.9-2.3.9-1.2,1.3-1.9,1.3-4.5s-.9-4.6-2.6-6.1c-1.7-1.5-4.1-2.2-7.1-2.2H0v30.2h12.6c2.2,0,4-.3,5.5-1,.4-.2.9-.4,1.3-.7v-2.9h0ZM11.9,5.8c1.2,0,2.1.3,2.7.8s.9,1.3.9,2.4-.3,1.9-.9,2.5c-.6.6-1.5.9-2.7.9h-5.2v-6.5h5.2ZM12.2,17.8c1.2,0,2.1.3,2.8.8s1,1.2,1,2.4-.3,1.9-.9,2.5c-.6.6-1.5.9-2.8.9h-5.6v-6.5"/>
  <path class="st0" d="M21.2,24.5c-.6,0-1.2.5-1.2,1.2v4.5h5.6v-5.6s-4.5,0-4.5,0Z"/>
</svg>